<svg width="1000" height="387" viewBox="0 0 1000 387" fill="none" xmlns="http://www.w3.org/2000/svg">
<g clip-path="url(#clip0_2_3)">
<path d="M80.3523 310V77.2727H234.443V117.841H129.557V173.295H224.216V213.864H129.557V310H80.3523ZM253.831 310V135.455H302.24V310H253.831ZM278.149 112.955C270.952 112.955 264.778 110.568 259.626 105.795C254.55 100.947 252.012 95.1515 252.012 88.4091C252.012 81.7424 254.55 76.0227 259.626 71.25C264.778 66.4015 270.952 63.9773 278.149 63.9773C285.346 63.9773 291.482 66.4015 296.558 71.25C301.709 76.0227 304.285 81.7424 304.285 88.4091C304.285 95.1515 301.709 100.947 296.558 105.795C291.482 110.568 285.346 112.955 278.149 112.955ZM368.673 135.455L400.718 196.477L433.559 135.455H483.218L432.65 222.727L484.582 310H435.15L400.718 249.659L366.855 310H316.855L368.673 222.727L318.673 135.455H368.673ZM577.577 313.636C560.759 313.636 546.252 309.924 534.055 302.5C521.933 295 512.577 284.545 505.986 271.136C499.471 257.652 496.214 241.97 496.214 224.091C496.214 206.212 499.471 190.455 505.986 176.818C512.577 163.106 521.744 152.424 533.486 144.773C545.305 137.045 559.092 133.182 574.85 133.182C583.941 133.182 592.918 134.697 601.782 137.727C610.645 140.758 618.714 145.682 625.986 152.5C633.259 159.242 639.055 168.182 643.373 179.318C647.691 190.455 649.85 204.167 649.85 220.455V231.818H515.305V208.636H622.577C622.577 198.788 620.608 190 616.668 182.273C612.805 174.545 607.274 168.447 600.077 163.977C592.956 159.508 584.547 157.273 574.85 157.273C564.168 157.273 554.926 159.924 547.123 165.227C539.395 170.455 533.448 177.273 529.282 185.682C525.115 194.091 523.032 203.106 523.032 212.727V228.182C523.032 241.364 525.305 252.538 529.85 261.705C534.471 270.795 540.873 277.727 549.055 282.5C557.236 287.197 566.744 289.545 577.577 289.545C584.623 289.545 590.986 288.561 596.668 286.591C602.426 284.545 607.388 281.515 611.555 277.5C615.721 273.409 618.941 268.333 621.214 262.273L647.123 269.545C644.395 278.333 639.812 286.061 633.373 292.727C626.933 299.318 618.979 304.47 609.509 308.182C600.039 311.818 589.395 313.636 577.577 313.636ZM677.845 310V135.455H703.755V161.818H705.573C708.755 153.182 714.512 146.174 722.845 140.795C731.179 135.417 740.573 132.727 751.027 132.727C752.997 132.727 755.459 132.765 758.414 132.841C761.368 132.917 763.603 133.03 765.118 133.182V160.455C764.209 160.227 762.126 159.886 758.868 159.432C755.686 158.902 752.315 158.636 748.755 158.636C740.27 158.636 732.694 160.417 726.027 163.977C719.436 167.462 714.209 172.311 710.345 178.523C706.558 184.659 704.664 191.667 704.664 199.545V310H677.845ZM835.472 314.091C824.411 314.091 814.373 312.008 805.358 307.841C796.343 303.598 789.184 297.5 783.881 289.545C778.578 281.515 775.926 271.818 775.926 260.455C775.926 250.455 777.896 242.348 781.835 236.136C785.775 229.848 791.04 224.924 797.631 221.364C804.222 217.803 811.494 215.152 819.449 213.409C827.479 211.591 835.547 210.152 843.653 209.091C854.259 207.727 862.858 206.705 869.449 206.023C876.116 205.265 880.964 204.015 883.994 202.273C887.1 200.53 888.653 197.5 888.653 193.182V192.273C888.653 181.061 885.585 172.348 879.449 166.136C873.388 159.924 864.184 156.818 851.835 156.818C839.032 156.818 828.994 159.621 821.722 165.227C814.449 170.833 809.335 176.818 806.381 183.182L780.926 174.091C785.472 163.485 791.532 155.227 799.108 149.318C806.759 143.333 815.093 139.167 824.108 136.818C833.199 134.394 842.138 133.182 850.926 133.182C856.532 133.182 862.972 133.864 870.244 135.227C877.593 136.515 884.676 139.205 891.494 143.295C898.388 147.386 904.108 153.561 908.653 161.818C913.199 170.076 915.472 181.136 915.472 195V310H888.653V286.364H887.29C885.472 290.152 882.441 294.205 878.199 298.523C873.956 302.841 868.313 306.515 861.267 309.545C854.222 312.576 845.623 314.091 835.472 314.091ZM839.562 290C850.169 290 859.108 287.917 866.381 283.75C873.729 279.583 879.259 274.205 882.972 267.614C886.759 261.023 888.653 254.091 888.653 246.818V222.273C887.517 223.636 885.017 224.886 881.153 226.023C877.366 227.083 872.972 228.03 867.972 228.864C863.047 229.621 858.237 230.303 853.54 230.909C848.919 231.439 845.169 231.894 842.29 232.273C835.32 233.182 828.805 234.659 822.744 236.705C816.759 238.674 811.911 241.667 808.199 245.682C804.563 249.621 802.744 255 802.744 261.818C802.744 271.136 806.191 278.182 813.085 282.955C820.055 287.652 828.881 290 839.562 290Z" fill="#233A54"/>
</g>
<defs>
<clipPath id="clip0_2_3">
<rect width="1000" height="387" fill="white"/>
</clipPath>
</defs>
</svg>
